

<svg version="1.1" id="Layer_1" xmlns="http://www.w3.org/2000/svg" xmlns:xlink="http://www.w3.org/1999/xlink" x="0px" y="0px"
	 width="907.372px" height="144.381px" viewBox="0 0 907.372 144.381" enable-background="new 0 0 907.372 144.381"
	 xml:space="preserve">
<g>
	<g>
		<path d="M271.102,23.327h-7.749c-2.607,0.003-5.131,0.238-7.641,0.872c-1.878,0.478-3.756,1.19-5.55,2.253
			c-0.801,0.474-1.577,1.028-2.318,1.644c-0.268-0.199-0.533-0.402-0.806-0.587l-0.075-0.051l-0.075-0.049
			c-1.936-1.265-4.046-2.299-6.29-3.005c-2.241-0.708-4.611-1.078-6.971-1.075c-2.694,0.001-5.265,0.175-7.749,0.508v-0.508h-43.81
			v0.959c-0.461-0.124-0.922-0.24-1.384-0.337c-2.141-0.445-4.295-0.621-6.508-0.622h-29.726c-2.622,0.003-5.166,0.245-7.696,0.899
			c-1.892,0.493-3.785,1.229-5.583,2.321c-0.539,0.327-1.064,0.695-1.578,1.086c-0.658-0.502-1.342-0.954-2.041-1.352
			c-2.044-1.162-4.183-1.886-6.319-2.333c-2.141-0.445-4.295-0.621-6.508-0.622H77.109H63.167H25.55
			c-2.622,0.003-5.166,0.245-7.696,0.899c-1.892,0.493-3.785,1.229-5.583,2.321c-1.346,0.815-2.63,1.835-3.753,3.038
			c-1.693,1.799-2.973,4.003-3.735,6.252c-0.771,2.256-1.065,4.531-1.066,6.725v54.835l0,0c-0.002,0.141-0.007,0.282-0.007,0.421
			c0,1.078,0.1,2.178,0.276,3.288h-0.27v38.182h51.559c2.611-0.003,5.141-0.24,7.657-0.881c1.882-0.482,3.765-1.203,5.561-2.275
			c1.343-0.802,2.63-1.806,3.759-2.996c1.702-1.78,3-3.976,3.774-6.223c0.783-2.253,1.082-4.529,1.082-6.718v-3.708H92.75h10h4.228
			h29.582v-0.948c0.471,0.126,0.942,0.242,1.414,0.339c2.129,0.436,4.273,0.607,6.478,0.609h37.618h13.941h15.641h10h4.228h29.582
			v-0.918c0.152,0.04,0.305,0.082,0.457,0.119c2.438,0.58,4.893,0.796,7.435,0.799h51.559V5h-43.81V23.327z"/>
		<path d="M607.547,23.327H573.35h-9.611h-33.206l-0.063,0c-2.61,0.035-5.139,0.304-7.646,0.973
			c-1.875,0.503-3.746,1.243-5.526,2.328c-0.518,0.315-1.021,0.669-1.515,1.042c-0.673-0.516-1.371-0.981-2.087-1.388
			c-2.044-1.163-4.183-1.886-6.318-2.333c-2.141-0.445-4.296-0.621-6.508-0.622h-29.727c-2.622,0.003-5.166,0.245-7.696,0.899
			c-1.892,0.493-3.785,1.229-5.583,2.321c-0.54,0.327-1.064,0.695-1.578,1.086c-0.658-0.502-1.343-0.955-2.041-1.352
			c-2.045-1.162-4.184-1.886-6.319-2.333c-2.141-0.445-4.296-0.621-6.508-0.622h-7.749V5h-43.81v22.944h-15.642v-4.618h-43.81v4.618
			h-5.917v38.182h5.917v31.271c-0.001,2.588,0.422,5.319,1.565,7.957c0.849,1.97,2.116,3.843,3.671,5.372
			c1.163,1.15,2.471,2.108,3.827,2.867c2.04,1.142,4.167,1.849,6.291,2.287c2.129,0.436,4.274,0.607,6.478,0.609h29.706
			c0.124,0.001,0.248,0.002,0.376,0.002c2.559-0.003,5.051-0.243,7.537-0.891v0.889h29.582h10h4.228h29.582v-0.948
			c0.471,0.126,0.943,0.242,1.415,0.339c2.129,0.436,4.273,0.607,6.478,0.609h29.727c2.61-0.003,5.142-0.24,7.657-0.881
			c0.078-0.02,0.155-0.047,0.233-0.067v0.948h43.809V84.453h11.17v12.944c-0.001,2.588,0.422,5.319,1.565,7.957
			c0.849,1.97,2.116,3.843,3.671,5.372c1.163,1.15,2.472,2.108,3.827,2.867c2.04,1.142,4.167,1.849,6.291,2.287
			c2.13,0.436,4.273,0.607,6.478,0.609h29.705c0.124,0.001,0.248,0.002,0.377,0.002c2.57-0.003,5.075-0.244,7.573-0.899
			c1.868-0.494,3.74-1.233,5.517-2.327c1.329-0.817,2.596-1.838,3.698-3.037c1.663-1.794,2.912-3.98,3.652-6.201
			c0.751-2.228,1.036-4.468,1.036-6.629V66.126V50.744V27.944h-29.582V23.327z"/>
		<path d="M902.828,34.594c-0.837-1.974-2.09-3.857-3.638-5.403c-1.158-1.163-2.465-2.136-3.824-2.909
			c-2.044-1.163-4.183-1.886-6.318-2.333c-2.141-0.445-4.296-0.621-6.508-0.622h-29.727c-2.622,0.003-5.166,0.245-7.696,0.899
			c-1.892,0.493-3.785,1.229-5.583,2.321c-0.684,0.414-1.35,0.881-1.988,1.397h-22.209v-4.618h-33.764h-10.045h-19.537h-14.229
			H708.18v0.958c-0.461-0.124-0.922-0.24-1.383-0.336c-2.141-0.445-4.296-0.621-6.508-0.622h-29.727
			c-2.622,0.003-5.166,0.245-7.696,0.899c-1.892,0.493-3.785,1.229-5.583,2.321c-1.347,0.815-2.631,1.835-3.754,3.038
			c-1.692,1.8-2.974,4.004-3.735,6.252c-0.771,2.256-1.065,4.531-1.065,6.725v23.564h0.327c-0.22,1.251-0.327,2.495-0.327,3.709
			v27.562c-0.001,2.588,0.422,5.319,1.565,7.957c0.849,1.97,2.116,3.843,3.672,5.372c1.163,1.15,2.472,2.108,3.827,2.867
			c2.04,1.141,4.167,1.849,6.292,2.286c2.129,0.436,4.273,0.607,6.478,0.609h51.559v-0.948c0.471,0.126,0.943,0.242,1.415,0.339
			c2.129,0.436,4.273,0.607,6.478,0.609h29.727c2.61-0.003,5.142-0.24,7.657-0.881c1.882-0.482,3.765-1.203,5.56-2.275
			c1.281-0.764,2.506-1.717,3.596-2.835c0.073,0.074,0.138,0.157,0.211,0.229c1.163,1.15,2.472,2.108,3.827,2.867
			c2.04,1.142,4.167,1.849,6.291,2.287c2.13,0.436,4.273,0.607,6.478,0.609h29.705c0.124,0.001,0.248,0.002,0.377,0.002
			c2.57-0.003,5.075-0.244,7.573-0.899c1.868-0.494,3.74-1.233,5.517-2.327c0.498-0.306,0.982-0.65,1.458-1.013
			c0.663,0.499,1.352,0.948,2.054,1.341c2.04,1.141,4.167,1.849,6.292,2.286c2.129,0.436,4.273,0.607,6.478,0.609h29.727
			c2.61-0.003,5.141-0.24,7.657-0.881c1.882-0.482,3.765-1.203,5.56-2.275c1.344-0.801,2.63-1.805,3.76-2.996
			c1.701-1.78,3-3.975,3.773-6.222c0.783-2.253,1.082-4.529,1.082-6.717V42.562C904.372,39.966,903.956,37.236,902.828,34.594z"/>
	</g>
	<g>
		<path fill="#FFFFFF" d="M67.318,119.96c0,6.061-3.946,9.092-11.833,9.092H13.926v-18.184h29.582v-4.617H25.759
			c-8.081,0-12.027-3.029-11.833-9.09V42.327c0-6.156,3.943-9.234,11.833-9.234h41.559V119.96z M43.508,51.419h-5.772v36.65h5.772
			V51.419z"/>
		<path fill="#FFFFFF" d="M102.959,106.251V78.833h-5.772v27.418h-23.81V33.093h41.559c7.887,0,11.833,3.078,11.833,9.234V62.53
			c0,3.08-1.973,5.436-5.917,7.07c3.943,1.73,5.917,4.088,5.917,7.068v29.582H102.959z M102.959,51.419h-5.772v9.09h5.772V51.419z"
			/>
		<path fill="#FFFFFF" d="M144.661,106.251c-7.89,0-11.833-3.029-11.833-9.09V69.601c0-5.965,3.943-8.994,11.833-9.092h17.749v-9.09
			h-5.772v4.473h-23.81V42.327c0-6.156,3.943-9.234,11.833-9.234h29.726c7.887,0,11.833,3.078,11.833,9.234v63.924H144.661z
			 M162.41,78.833h-5.772v9.236h5.772V78.833z"/>
		<path fill="#FFFFFF" d="M221.861,106.251V51.419h-5.772v54.832h-23.81V33.093h23.81v4.617c3.943-3.078,9.86-4.617,17.749-4.617
			c2.692,0,5.29,0.818,7.792,2.453c2.692,1.828,4.041,4.09,4.041,6.781v63.924H221.861z"/>
		<path fill="#FFFFFF" d="M263.563,106.251c-8.081,0-12.027-3.029-11.833-9.09V42.327c-0.097-6.156,3.847-9.234,11.833-9.234h17.749
			V14.765h23.81v91.486H263.563z M281.312,51.419h-5.772v36.65h5.772V51.419z"/>
		<path fill="#FFFFFF" d="M394.008,97.161c0,6.156-3.946,9.186-11.833,9.09h-29.727c-7.889,0-11.833-3.029-11.833-9.09v-41.27H334.7
			V37.71h5.917v-4.617h23.81v4.617h29.582v18.182h-29.582v32.178h5.917V60.509h23.666V97.161z"/>
		<path fill="#FFFFFF" d="M429.65,106.251V51.419h-5.771v54.832h-23.811V14.765h23.811v18.328h17.749
			c7.887,0,11.832,3.078,11.832,9.234v63.924H429.65z"/>
		<path fill="#FFFFFF" d="M512.911,97.161c0,6.061-3.945,9.09-11.832,9.09h-29.727c-7.889,0-11.832-3.029-11.832-9.09V42.327
			c0-6.156,3.943-9.234,11.832-9.234h29.727c7.887,0,11.832,3.078,11.832,9.234v36.506h-29.582v9.236h5.773v-4.617h23.809V97.161z
			 M489.102,51.419h-5.773v9.09h5.773V51.419z"/>
		<path fill="#FFFFFF" d="M542.78,74.216v32.035h-23.811V42.327c0-6.061,3.943-9.139,11.834-9.234h32.756v18.326H542.78v4.473
			h20.779v18.324H542.78z"/>
		<path fill="#FFFFFF" d="M627.34,97.161c0,6.156-3.945,9.186-11.834,9.09h-29.725c-7.891,0-11.834-3.029-11.834-9.09v-41.27h-5.916
			V37.71h5.916v-4.617h23.811v4.617h29.582v18.182h-29.582v32.178h5.916V60.509h23.666V97.161z"/>
		<path fill="#FFFFFF" d="M670.772,106.251c-7.889,0-11.832-3.029-11.832-9.09V69.601c0-5.965,3.943-8.994,11.832-9.092h17.75v-9.09
			h-5.773v4.473H658.94V42.327c0-6.156,3.943-9.234,11.832-9.234h29.727c7.887,0,11.832,3.078,11.832,9.234v63.924H670.772z
			 M688.522,78.833h-5.773v9.236h5.773V78.833z"/>
		<path fill="#FFFFFF" d="M771.782,97.161c0,6.061-3.945,9.09-11.832,9.09h-29.727c-7.889,0-11.832-3.029-11.832-9.09V33.093H742.2
			v54.977h5.773V33.093h23.809V97.161z"/>
		<path fill="#FFFFFF" d="M835.129,97.161c0,6.156-3.945,9.186-11.834,9.09h-29.725c-7.891,0-11.834-3.029-11.834-9.09v-41.27
			h-5.916V37.71h5.916v-4.617h23.811v4.617h29.582v18.182h-29.582v32.178h5.916V60.509h23.666V97.161z"/>
		<path fill="#FFFFFF" d="M894.581,97.161c0,6.061-3.945,9.09-11.832,9.09h-29.727c-7.889,0-11.832-3.029-11.832-9.09V42.327
			c0-6.156,3.943-9.234,11.832-9.234h29.727c7.887,0,11.832,3.078,11.832,9.234V97.161z M870.772,51.419h-5.773v36.65h5.773V51.419z
			"/>
	</g>
</g>
</svg>
