<?xml version="1.0" encoding="utf-8"?>
<!-- Generator: Adobe Illustrator 22.0.1, SVG Export Plug-In . SVG Version: 6.00 Build 0)  -->
<svg version="1.1" id="Layer_1" xmlns="http://www.w3.org/2000/svg" xmlns:xlink="http://www.w3.org/1999/xlink" x="0px" y="0px"
	 viewBox="0 0 42 42" style="enable-background:new 0 0 42 42;" xml:space="preserve">
<g>
	<g>
		<g>
			<circle style="fill:#EB0000;" cx="21" cy="21" r="18"/>
			<path style="fill:#FFFFFF;" d="M21,3c9.94,0,18,8.06,18,18s-8.06,18-18,18c-9.94,0-18-8.06-18-18S11.06,3,21,3 M21,1
				C9.97,1,1,9.97,1,21s8.97,20,20,20c11.03,0,20-8.97,20-20S32.03,1,21,1L21,1z"/>
		</g>
	</g>
</g>
<g>
	<path d="M31.52,19.87h-0.19l-0.93-6.53c0-0.93-0.75-1.69-1.68-1.69H13.28c-0.93,0-1.68,0.75-1.68,1.69l-0.93,6.53h-0.19
		c-0.93,0-1.68,0.75-1.68,1.68v2.35c0,0.86,0.64,1.56,1.47,1.66v3.09c0,0.93,0.76,1.68,1.68,1.68h0.63c0.93,0,1.68-0.75,1.68-1.68
		v-3.07h13.47v3.07c0,0.93,0.75,1.68,1.68,1.68h0.63c0.93,0,1.68-0.75,1.68-1.68v-3.09c0.83-0.1,1.47-0.8,1.47-1.66v-2.35
		C33.2,20.62,32.45,19.87,31.52,19.87z M13.33,14.05c0-0.45,0.37-0.82,0.82-0.82h13.71c0.45,0,0.82,0.37,0.82,0.82l0.71,4.37H12.62
		L13.33,14.05z"/>
	<path style="fill:#FFFFFF;" d="M28.71,11.66c0.93,0,1.68,0.75,1.68,1.69l0.93,6.53h0.19c0.93,0,1.68,0.75,1.68,1.68v2.35
		c0,0.86-0.64,1.56-1.47,1.66v3.09c0,0.93-0.75,1.68-1.68,1.68h-0.63c-0.93,0-1.68-0.75-1.68-1.68v-3.07H14.27v3.07
		c0,0.93-0.75,1.68-1.68,1.68h-0.63c-0.93,0-1.68-0.75-1.68-1.68v-3.09c-0.83-0.11-1.47-0.81-1.47-1.66v-2.35
		c0-0.93,0.75-1.68,1.68-1.68h0.19l0.93-6.53c0-0.93,0.75-1.69,1.68-1.69H28.71 M12.62,18.42h16.76l-0.71-4.37
		c0-0.45-0.37-0.82-0.82-0.82H14.14c-0.45,0-0.82,0.37-0.82,0.82L12.62,18.42 M28.71,9.86H13.28c-1.87,0-3.4,1.48-3.48,3.33
		l-0.74,5.18C7.85,18.91,7,20.13,7,21.55v2.35c0,1.16,0.58,2.2,1.47,2.83v1.92c0,1.92,1.56,3.48,3.48,3.48h0.63
		c1.92,0,3.48-1.56,3.48-3.48v-1.27h9.87v1.27c0,1.92,1.56,3.48,3.48,3.48h0.63c1.92,0,3.48-1.56,3.48-3.48v-1.92
		c0.9-0.63,1.47-1.68,1.47-2.84v-2.35c0-1.42-0.85-2.64-2.07-3.18l-0.74-5.18C32.11,11.34,30.58,9.86,28.71,9.86L28.71,9.86z"/>
</g>
</svg>
