<?xml version="1.0" encoding="utf-8"?>
<!-- Generator: Adobe Illustrator 22.0.1, SVG Export Plug-In . SVG Version: 6.00 Build 0)  -->
<svg version="1.1" id="Layer_1" xmlns="http://www.w3.org/2000/svg" xmlns:xlink="http://www.w3.org/1999/xlink" x="0px" y="0px"
	 viewBox="0 0 42 42" style="enable-background:new 0 0 42 42;" xml:space="preserve">
<g>
	<g>
		<circle style="fill:#669868;" cx="21" cy="21" r="18"/>
		<path style="fill:#669868;" d="M21,3c9.94,0,18,8.06,18,18s-8.06,18-18,18S3,30.94,3,21S11.06,3,21,3 M21,1C9.97,1,1,9.97,1,21
			s8.97,20,20,20s20-8.97,20-20S32.03,1,21,1L21,1z"/>
	</g>
</g>
<path style="fill:#fff;" d="M27.21,26.29c0-1.24-0.28-2.24-0.83-2.97c-0.57-0.75-1.38-1.49-2.41-2.21l-3.71-2.57
	c-0.66-0.46-1.09-0.87-1.32-1.24c-0.23-0.38-0.34-0.88-0.34-1.5c0-0.84,0.2-1.52,0.59-2c0.4-0.5,1-0.75,1.79-0.75
	c0.82,0,1.44,0.29,1.84,0.86c0.38,0.55,0.58,1.29,0.58,2.21v1.09h3.49v-1.3c0-1.51-0.39-2.73-1.16-3.63
	c-0.74-0.86-1.8-1.42-3.14-1.67v-3.1h-3.17v3.1c-1.32,0.25-2.36,0.76-3.06,1.57c-0.77,0.89-1.16,2.1-1.16,3.61
	c0,1.24,0.28,2.23,0.82,2.92c0.57,0.72,1.38,1.45,2.41,2.17l3.67,2.57c0.66,0.46,1.1,0.88,1.32,1.29c0.22,0.4,0.34,0.92,0.34,1.53
	c0,0.92-0.27,1.61-0.8,2.07c-0.52,0.45-1.19,0.67-1.98,0.67c-0.83,0-1.5-0.26-2-0.77c-0.49-0.51-0.74-1.28-0.74-2.3v-1.38h-3.45
	v1.58c0,1.56,0.44,2.8,1.32,3.7c0.81,0.83,1.93,1.36,3.31,1.6v3.05h3.17v-3.05c1.4-0.23,2.53-0.77,3.35-1.62
	C26.79,28.96,27.21,27.76,27.21,26.29z"/>
</svg>
