<?xml version="1.0" encoding="utf-8"?>
<!-- Generator: Adobe Illustrator 22.0.1, SVG Export Plug-In . SVG Version: 6.00 Build 0)  -->
<svg version="1.1" id="Layer_1" xmlns="http://www.w3.org/2000/svg" xmlns:xlink="http://www.w3.org/1999/xlink" x="0px" y="0px"
	 viewBox="0 0 42 42" style="enable-background:new 0 0 42 42;" xml:space="preserve">
<g>
	<g>
		<circle style="fill:#2D6EB9;" cx="21" cy="21" r="18"/>
		<path style="fill:#2D6EB9;" d="M21,3c9.94,0,18,8.06,18,18s-8.06,18-18,18c-9.94,0-18-8.06-18-18S11.06,3,21,3 M21,1
			C9.97,1,1,9.97,1,21s8.97,20,20,20s20-8.97,20-20S32.03,1,21,1L21,1z"/>
	</g>
</g>
<path style="fill:#FFFFFF;" d="M17.23,31.45c-0.15-0.3-0.25-0.59-0.29-0.88c-0.04-0.29-0.06-0.69-0.06-1.2V24.4
	c0-0.66-0.16-1.19-0.48-1.57c-0.32-0.38-0.81-0.58-1.47-0.58h-1.76v9.2H9.99v-20.9h4.94c0.92,0,1.7,0.11,2.34,0.32
	c0.64,0.21,1.17,0.52,1.59,0.91c0.42,0.4,0.72,0.88,0.91,1.44c0.19,0.57,0.29,1.19,0.29,1.88v2.82c0,0.73-0.19,1.35-0.58,1.86
	c-0.38,0.51-0.86,0.9-1.41,1.15c0.66,0.24,1.16,0.65,1.49,1.23c0.33,0.59,0.5,1.29,0.5,2.1v4.81c0,0.43,0.03,0.85,0.1,1.27
	c0.06,0.42,0.17,0.79,0.32,1.11H17.23z M16.88,15.21c0-0.67-0.16-1.19-0.48-1.58c-0.32-0.39-0.81-0.58-1.47-0.58h-1.76v6.89h1.76
	c0.66,0,1.15-0.19,1.47-0.58c0.32-0.39,0.48-0.91,0.48-1.58V15.21z"/>
<path style="fill:#FFFFFF;" d="M31.96,22.07c-0.8,0.82-2.11,1.23-3.93,1.23h-1.86v8.14H23v-20.9h5.03c0.92,0,1.7,0.11,2.34,0.32
	c0.64,0.21,1.17,0.52,1.59,0.91c0.42,0.4,0.72,0.88,0.91,1.44c0.19,0.57,0.29,1.19,0.29,1.88v3.66
	C33.17,20.15,32.77,21.25,31.96,22.07z M29.99,15.21c0-0.67-0.16-1.2-0.46-1.58c-0.31-0.39-0.81-0.58-1.49-0.58h-1.86v7.76h1.86
	c0.68,0,1.18-0.19,1.49-0.58c0.31-0.39,0.46-0.92,0.46-1.58V15.21z"/>
</svg>
