<?xml version="1.0" encoding="UTF-8"?>
<svg width="181px" height="69px" viewBox="0 0 181 69" version="1.1" xmlns="http://www.w3.org/2000/svg" xmlns:xlink="http://www.w3.org/1999/xlink">
    <title>Group 33</title>
    <defs>
        <polygon id="path-1" points="0.507256384 0.489502262 136.695242 0.489502262 136.695242 52.2421086 0.507256384 52.2421086"></polygon>
        <polygon id="path-3" points="0.805613364 0.218769231 13.401448 0.218769231 13.401448 13.8010317 0.805613364 13.8010317"></polygon>
    </defs>
    <g id="FINAL" stroke="none" stroke-width="1" fill="none" fill-rule="evenodd">
        <g id="GTAO-DLC-Summer-Pack-V9B" transform="translate(-422.000000, -7483.000000)">
            <g id="Discounts-and-Rewards" transform="translate(189.000000, 7233.000000)">
                <g id="Group-8" transform="translate(11.000000, 250.000000)">
                    <g id="Group-33" transform="translate(222.000000, 0.000000)">
                        <g id="Group-3" transform="translate(21.176471, 0.325140)">
                            <mask id="mask-2" fill="white">
                                <use xlink:href="#path-1"></use>
                            </mask>
                            <g id="Clip-2"></g>
                            <path d="M136.092543,9.58699548 C135.232452,6.97495928 133.5701,4.95830769 131.106299,3.53866968 C128.643312,2.11984615 125.554805,1.40961991 121.845665,1.40961991 L116.510009,1.40961991 C116.42286,1.39984615 116.352,1.37622624 116.253448,1.37622624 L105.986118,1.37622624 C105.48114,1.37622624 104.973719,1.52446154 104.470371,1.81930317 C103.963765,2.1141448 103.542679,2.51161086 103.208742,3.01088688 L82.8964344,33.264733 L81.2601448,20.0799367 L92.9805068,3.38554751 C93.1735385,3.13550226 93.3111855,2.86428054 93.393448,2.56862443 C93.5034027,2.18256109 93.4545339,1.88690498 93.2484706,1.68247059 C93.0424072,1.4780362 92.6840362,1.37622624 92.1790588,1.37622624 L81.912543,1.37622624 C81.4075656,1.37622624 80.8944434,1.52446154 80.3780633,1.81930317 C79.8600543,2.1141448 79.4454842,2.51161086 79.1351674,3.01088688 L68.5550769,18.7857285 L58.9360724,33.1287149 L57.5604163,18.7775837 C57.5604163,18.7775837 57.5441267,18.7621086 57.5188778,18.7368597 C57.4553484,16.8554118 57.1548054,15.0448235 56.5846697,13.3164977 C55.2758009,9.3540543 52.8470226,6.22482353 49.2958914,3.93043439 C45.7406878,1.63767421 41.4467511,0.489257919 36.4108235,0.489257919 C31.3504615,0.489257919 26.3919095,1.63767421 21.5359819,3.93043439 C16.6767964,6.22482353 12.4683801,9.3540543 8.90828959,13.3164977 C5.3481991,17.2805701 2.88928507,21.64781 1.53399095,26.4165882 C0.18358371,31.16419 0.164850679,35.50781 1.48023529,39.4490769 C2.79236199,43.3895294 5.22521267,46.5073575 8.77960181,48.8009321 C12.3315475,51.0953213 16.6385158,52.2421086 21.6988778,52.2421086 C26.7592398,52.2421086 31.711276,51.0953213 36.5566154,48.8009321 C39.6459367,47.3397557 42.4575204,45.5218371 45.0206878,43.3879005 L43.6108235,30.1819276 C43.5212308,29.3479005 42.4005068,29.1027421 41.9973394,29.8382172 C41.3481991,31.0208416 40.5434932,32.1464525 39.5783348,33.2134208 C37.7164344,35.2699819 35.5189683,36.8989412 32.9834932,38.1027421 C30.4480181,39.3073575 27.8547149,39.9092579 25.2043982,39.9092579 C22.5548959,39.9092579 20.2979729,39.3073575 18.4344434,38.1027421 C16.5717285,36.8989412 15.2954389,35.2699819 14.6015023,33.2134208 C13.9075656,31.1584887 13.9140814,28.8926063 14.6177919,26.4165882 C15.3288326,23.9193937 16.6181538,21.6298914 18.4849412,19.5513394 C20.352543,17.4744163 22.5605973,15.8324253 25.1074751,14.6286244 C27.6551674,13.4248235 30.2533575,12.8237376 32.9053032,12.8237376 C35.530371,12.8237376 37.7767059,13.4248235 39.6386063,14.6286244 C40.1476561,14.9584887 40.6037647,15.3266335 41.0248507,15.7208416 C44.5996018,18.6545973 45.031276,22.9998462 45.0377919,23.0682624 L47.0177919,41.6286244 C47.0210498,41.6269955 47.0234932,41.624552 47.0259367,41.6221086 L48.0766154,49.5844615 C48.1262986,50.0853665 48.3315475,50.4877195 48.6891041,50.7939638 C49.0474751,51.1018371 49.492181,51.2541448 50.0224072,51.2541448 L57.6491946,51.2541448 C58.1786063,51.2541448 58.7096471,51.1018371 59.2439457,50.7939638 C59.7766154,50.4877195 60.2131765,50.0731493 60.5560724,49.5494389 L70.6344434,35.2064525 L72.1485611,49.5844615 C72.2006878,50.0853665 72.4165249,50.4877195 72.7985158,50.7939638 C72.813991,50.804552 72.8278371,50.8118824 72.8433122,50.8232851 C72.9646697,50.9405701 73.1202353,51.0317919 73.3091946,51.0904344 C73.5641267,51.1955023 73.8353484,51.2541448 74.1326335,51.2541448 L81.7227692,51.2541448 C81.912543,51.2541448 82.1039457,51.2264525 82.2937195,51.1857285 L82.3311855,51.1857285 C82.9591493,51.1857285 83.4910045,51.0277195 83.9308235,50.7092579 C84.3706425,50.3907964 84.6711855,49.9485339 84.8324525,49.3800271 L92.7100995,38.5775837 L101.94467,24.9855475 L101.901502,24.9855475 L103.169647,23.1822896 L103.171276,23.1798462 L110.62295,12.585095 L118.124308,12.585095 C119.354172,12.585095 120.385303,12.8400271 121.214443,13.3515204 C122.045213,13.8621991 122.606389,14.5781267 122.901231,15.4976742 C123.192,16.4180362 123.174896,17.4564977 122.844217,18.6155023 C122.515167,19.7736923 121.934443,20.8414751 121.104489,21.8180362 C120.270462,22.7945973 119.28657,23.566724 118.150371,24.1336018 C117.011729,24.7029231 115.829104,24.9855475 114.59924,24.9855475 L109.136525,24.9855475 C108.386389,24.9855475 107.836615,25.6900724 108.016615,26.4182172 L112.060507,42.645095 L113.940326,49.6862715 C114.109738,50.2783982 114.314172,50.6807511 114.554443,50.8965882 C114.794715,51.1124253 115.178335,51.2191222 115.71019,51.2191222 L126.466208,51.2191222 C126.913357,51.2191222 127.358878,51.0806606 127.709919,50.8029231 C128.030824,50.546362 128.240145,50.2425611 128.339511,49.8915204 C128.417701,49.6178552 128.416072,49.3686244 128.337068,49.1413846 L123.68476,32.9584887 C126.674715,31.505457 129.239511,29.5401176 131.376706,27.0640995 C133.5139,24.5888959 135.025575,21.7944163 135.9101,18.6839186 C136.891548,15.2313394 136.953448,12.1982172 136.092543,9.58699548" id="Fill-1" fill="#FFFFFF" mask="url(#mask-2)"></path>
                        </g>
                        <path d="M3.50413575,62.8977828 C3.68006335,63.4394118 3.99852489,63.8702715 4.46359276,64.1871041 C4.92784615,64.5055656 5.4898371,64.6635747 6.14875113,64.6635747 C6.80847964,64.6635747 7.45273303,64.5055656 8.08151131,64.1871041 C8.71028959,63.8702715 9.25599095,63.4394118 9.71535747,62.8977828 C10.1755385,62.3561538 10.492371,61.7591403 10.6642262,61.1042986 C10.8385249,60.4445701 10.8393394,59.8418552 10.6658552,59.2928959 C10.4931855,58.7455656 10.1739095,58.311448 9.70965611,57.9938009 C9.24540271,57.6761538 8.6858552,57.5181448 8.03345701,57.5181448 C7.37454299,57.5181448 6.72784615,57.6761538 6.09662443,57.9938009 C5.46377376,58.311448 4.91725792,58.7455656 4.45463348,59.2928959 C3.99363801,59.8418552 3.67517647,60.4445701 3.50087783,61.1042986 C3.32820814,61.7591403 3.3298371,62.3561538 3.50413575,62.8977828 M2.06657919,57.6484615 C2.94621719,56.6026697 3.99119457,55.7776018 5.19499548,55.1732579 C6.40123982,54.5664706 7.63191855,54.2634842 8.89028959,54.2634842 C10.1421448,54.2634842 11.212371,54.5664706 12.0985249,55.1732579 C12.9854932,55.7776018 13.5922805,56.6026697 13.9221448,57.6484615 C14.252009,58.6934389 14.2511946,59.8467421 13.9188869,61.1042986 C13.5890226,62.3569683 12.9846787,63.5029412 12.1050407,64.5430317 C11.2245882,65.5814932 10.1836833,66.4057466 8.98232579,67.0100905 C7.77933937,67.6144344 6.54947511,67.9174208 5.29028959,67.9174208 C4.03191855,67.9174208 2.96006335,67.6144344 2.0739095,67.0100905 C1.18857014,66.4057466 0.579339367,65.5814932 0.248660633,64.5430317 C-0.0820180995,63.5029412 -0.0828325792,62.3569683 0.247031674,61.1042986 C0.579339367,59.8467421 1.18531222,58.6934389 2.06657919,57.6484615" id="Fill-4" fill="#FFFFFF"></path>
                        <path d="M20.8388688,60.4305611 C21.1206787,60.292914 21.3625792,60.1039548 21.5637557,59.8636833 C21.7641176,59.6242262 21.9050226,59.355448 21.9832127,59.0565339 C22.0630317,58.7551765 22.0646606,58.4839548 21.990543,58.2412398 C21.9172398,57.9985249 21.7755204,57.8079367 21.5670136,57.6702896 C21.3576923,57.533457 21.1027602,57.4642262 20.8030317,57.4642262 L19.3638462,57.4642262 L18.52819,60.6374389 L19.9665611,60.6374389 C20.2662896,60.6374389 20.5570588,60.5682081 20.8388688,60.4305611 M24.0226697,55.0688416 C24.6376018,55.4435023 25.0529864,55.974543 25.269638,56.6635928 C25.4862896,57.353457 25.4740724,58.1557195 25.2329864,59.073638 C24.9951584,59.9777104 24.5854751,60.7718281 24.0071946,61.455991 C23.4280995,62.1385249 22.7333484,62.6654932 21.9221267,63.0360814 C21.1100905,63.4082986 20.2442986,63.5948145 19.3214932,63.5948145 L17.7479186,63.5948145 L16.8047511,67.172009 C16.7656561,67.3218733 16.690724,67.4383439 16.5815837,67.5222353 C16.4732579,67.6069412 16.3413122,67.6484796 16.1849321,67.6484796 L13.8840271,67.6484796 C13.7341629,67.6484796 13.629095,67.6069412 13.5704525,67.5222353 C13.51181,67.4383439 13.5028507,67.3218733 13.5427602,67.172009 L16.7534389,54.9922805 C16.7900905,54.8546335 16.8642081,54.7389774 16.9757919,54.6461267 C17.0865611,54.5524615 17.2111765,54.5076652 17.3488235,54.5076652 L18.5086425,54.5076652 L19.6766063,54.5076652 L21.7176923,54.5076652 C22.6404977,54.5076652 23.408552,54.6933665 24.0226697,55.0688416" id="Fill-6" fill="#FFFFFF"></path>
                        <path d="M27.3364615,54.982914 C27.3755566,54.8330498 27.4480452,54.7157647 27.5539276,54.6318733 C27.6589955,54.5479819 27.7876833,54.5064434 27.9375475,54.5064434 L36.3959186,54.5064434 C36.5457828,54.5064434 36.6516652,54.5479819 36.7127511,54.6318733 C36.7746516,54.7157647 36.7860543,54.8330498 36.7469593,54.982914 L36.2012579,57.0508778 C36.1621629,57.2007421 36.0904887,57.3163982 35.9870498,57.4011041 C35.8844253,57.484181 35.7549231,57.5273484 35.6001719,57.5273484 L29.8922986,57.5273484 L29.318905,59.7028235 L33.6503077,59.7028235 C33.8123891,59.7028235 33.9280452,59.7451765 33.9980905,59.8315113 C34.0689502,59.9202896 34.0819819,60.0408326 34.0412579,60.1963982 L33.5916652,61.904362 C33.5525701,62.0542262 33.4751946,62.1706968 33.3595385,62.2545882 C33.2446968,62.3384796 33.1062353,62.3808326 32.9449683,62.3808326 L28.6119367,62.3808326 L28.0214389,64.6182081 L33.7301267,64.6182081 C33.9337466,64.6182081 34.078724,64.6744072 34.1666878,64.7851765 C34.2546516,64.8959457 34.2733846,65.0449955 34.2245158,65.2306968 L33.7122081,67.1724163 C33.6747421,67.3165792 33.6014389,67.4289774 33.4931131,67.5136833 C33.3839729,67.5967602 33.2536561,67.6382986 33.1037919,67.6382986 L24.4743801,67.6382986 C24.3245158,67.6382986 24.2186335,67.5992036 24.156733,67.5193846 C24.0948326,67.4371222 24.0826154,67.3214661 24.1225249,67.1724163 L27.3364615,54.982914 Z" id="Fill-8" fill="#FFFFFF"></path>
                        <path d="M50.1689321,54.597095 C50.2137285,54.656552 50.2210588,54.7428869 50.1909231,54.8560995 L46.9110136,67.297276 C46.8816923,67.4104887 46.8263077,67.4984525 46.7489321,67.5579095 C46.6691131,67.618181 46.5762624,67.6483167 46.4687511,67.6483167 L44.0236833,67.6483167 C43.7418733,67.6483167 43.5488416,67.5131131 43.4462172,67.2435204 L40.4212398,59.5580905 L38.3801538,67.297276 C38.3508326,67.4104887 38.2970769,67.4984525 38.2172579,67.5579095 C38.1390679,67.618181 38.0454027,67.6483167 37.9378914,67.6483167 L35.3763529,67.6483167 C35.2680271,67.6483167 35.1906516,67.618181 35.1434118,67.5579095 C35.0961719,67.4984525 35.0880271,67.4104887 35.1181629,67.297276 L38.3988869,54.8560995 C38.4282081,54.7428869 38.4819638,54.656552 38.5601538,54.597095 C38.6407873,54.5368235 38.7328235,54.5075023 38.8411493,54.5075023 L41.493095,54.5075023 C41.7504706,54.5075023 41.9386154,54.6475928 42.055086,54.9285882 L45.0124615,62.1562805 L46.9370769,54.8560995 C46.9663982,54.7428869 47.0201538,54.656552 47.0967149,54.597095 C47.1716471,54.5368235 47.2636833,54.5075023 47.3711946,54.5075023 L49.9335475,54.5075023 C50.0475747,54.5075023 50.1257647,54.5368235 50.1689321,54.597095" id="Fill-10" fill="#FFFFFF"></path>
                        <path d="M73.9844796,54.5828416 C74.0423077,54.6398552 74.0577828,54.7156018 74.0325339,54.8117104 C74.0178733,54.8662805 73.9844796,54.9387692 73.930724,55.0275475 L65.9097285,67.2080905 C65.8266516,67.3400362 65.7207692,67.446733 65.5863801,67.5306244 C65.4536199,67.6145158 65.3216742,67.6576833 65.188914,67.6576833 L63.3017647,67.6576833 C63.1763348,67.6576833 63.0655656,67.6169593 62.9702715,67.5355113 C62.8749774,67.4548778 62.8204072,67.3489955 62.8065611,67.2170498 L62.4131674,63.4240181 L59.9233032,67.2080905 C59.8402262,67.3457376 59.7319005,67.4548778 59.5991403,67.5355113 C59.4671946,67.6169593 59.3352489,67.6576833 59.2041176,67.6576833 L57.3063801,67.6576833 C57.1744344,67.6576833 57.0652941,67.6169593 56.9748869,67.5355113 C56.8861086,67.4548778 56.8331674,67.3489955 56.8209502,67.2170498 L55.2522624,55.0275475 C55.2457466,54.9387692 55.249819,54.8662805 55.2644796,54.8117104 C55.2897285,54.7156018 55.3418552,54.6414842 55.4224887,54.5877285 C55.5023077,54.5331584 55.6057466,54.5062805 55.731991,54.5062805 L58.2845701,54.5062805 C58.4157014,54.5062805 58.5240271,54.5453756 58.608733,54.6235656 C58.6934389,54.7017557 58.7406787,54.809267 58.7520814,54.946914 L59.5022172,62.8750588 L64.4917195,54.9289955 C64.5682805,54.7978643 64.670905,54.6919819 64.7995928,54.6146063 C64.9274661,54.5364163 65.0553394,54.4981357 65.1807692,54.4981357 L67.7333484,54.4981357 C67.8595928,54.4981357 67.948371,54.5241991 67.9988688,54.5779548 C68.05181,54.6333394 68.0632127,54.7107149 68.0363348,54.8117104 C68.0167873,54.8907149 67.9817647,54.9632036 67.9345249,55.0275475 L65.0398643,59.4314389 L65.4609502,62.9125249 L70.4781448,54.9289955 C70.5612217,54.7978643 70.6646606,54.6919819 70.7900905,54.6146063 C70.9163348,54.5364163 71.0417647,54.4981357 71.1671946,54.4981357 L73.7205882,54.4981357 C73.8395023,54.4981357 73.929095,54.5258281 73.9844796,54.5828416" id="Fill-12" fill="#FFFFFF"></path>
                        <path d="M86.1699095,54.597095 C86.2147059,54.656552 86.2212217,54.7428869 86.191086,54.8560995 L82.9111765,67.297276 C82.8818552,67.4104887 82.828914,67.4984525 82.7531674,67.5579095 C82.6774208,67.618181 82.5861991,67.6483167 82.4778733,67.6483167 L79.9342534,67.6483167 C79.8259276,67.6483167 79.7493665,67.618181 79.7053846,67.5579095 C79.6622172,67.4984525 79.6548869,67.4104887 79.6850226,67.297276 L80.9890045,62.3533846 L76.071991,62.3533846 L74.768009,67.297276 C74.7386878,67.4104887 74.6857466,67.4984525 74.61,67.5579095 C74.5334389,67.618181 74.4422172,67.6483167 74.3347059,67.6483167 L71.7992308,67.6483167 C71.6917195,67.6483167 71.6143439,67.618181 71.5662896,67.5579095 C71.5198643,67.4984525 71.5117195,67.4104887 71.5418552,67.297276 L74.8209502,54.8560995 C74.8519005,54.7428869 74.9056561,54.656552 74.9838462,54.597095 C75.0636652,54.5368235 75.1565158,54.5075023 75.2640271,54.5075023 L77.7995023,54.5075023 C77.9061991,54.5075023 77.9827602,54.5368235 78.0267421,54.597095 C78.0715385,54.656552 78.0780543,54.7428869 78.0479186,54.8560995 L76.851448,59.3984525 L81.7684615,59.3984525 L82.9641176,54.8560995 C82.9950679,54.7428869 83.048009,54.656552 83.1229412,54.597095 C83.1995023,54.5368235 83.290724,54.5075023 83.3990498,54.5075023 L85.9426697,54.5075023 C86.0509955,54.5075023 86.1267421,54.5368235 86.1699095,54.597095" id="Fill-14" fill="#FFFFFF"></path>
                        <path d="M87.9928778,54.982914 C88.0327873,54.8330498 88.1044615,54.7157647 88.2111584,54.6318733 C88.3162262,54.5479819 88.444914,54.5064434 88.5947783,54.5064434 L97.0531493,54.5064434 C97.2030136,54.5064434 97.3088959,54.5479819 97.3699819,54.6318733 C97.4318824,54.7157647 97.4432851,54.8330498 97.40419,54.982914 L96.8584887,57.0508778 C96.8193937,57.2007421 96.7477195,57.3163982 96.6442805,57.4011041 C96.5416561,57.484181 96.4121538,57.5273484 96.2565882,57.5273484 L90.5495294,57.5273484 L89.9753213,59.7028235 L94.3075385,59.7028235 C94.4696199,59.7028235 94.585276,59.7451765 94.6553213,59.8315113 C94.726181,59.9202896 94.7392127,60.0408326 94.6976742,60.1963982 L94.2488959,61.904362 C94.2098009,62.0542262 94.1324253,62.1706968 94.0167692,62.2545882 C93.9019276,62.3384796 93.7634661,62.3808326 93.6013846,62.3808326 L89.2691674,62.3808326 L88.6786697,64.6182081 L94.3873575,64.6182081 C94.5901629,64.6182081 94.7343258,64.6744072 94.8239186,64.7851765 C94.9118824,64.8959457 94.9306154,65.0449955 94.8809321,65.2306968 L94.3694389,67.1724163 C94.3319729,67.3165792 94.2570407,67.4289774 94.1495294,67.5136833 C94.0403891,67.5967602 93.9108869,67.6382986 93.7610226,67.6382986 L85.1316109,67.6382986 C84.9817466,67.6382986 84.8758643,67.5992036 84.8139638,67.5193846 C84.7512489,67.4371222 84.7398462,67.3214661 84.7797557,67.1724163 L87.9928778,54.982914 Z" id="Fill-16" fill="#FFFFFF"></path>
                        <path d="M99.0225611,54.982914 C99.0616561,54.8330498 99.1341448,54.7157647 99.2408416,54.6318733 C99.345095,54.5479819 99.4737828,54.5064434 99.6244615,54.5064434 L108.082833,54.5064434 C108.232697,54.5064434 108.337765,54.5479819 108.399665,54.6318733 C108.461566,54.7157647 108.472968,54.8330498 108.433873,54.982914 L107.888172,57.0508778 C107.848262,57.2007421 107.777403,57.3163982 107.673964,57.4011041 C107.571339,57.484181 107.441837,57.5273484 107.286271,57.5273484 L101.578398,57.5273484 L101.005005,59.7028235 L105.337222,59.7028235 C105.499303,59.7028235 105.614959,59.7451765 105.685005,59.8315113 C105.75505,59.9202896 105.768896,60.0408326 105.727357,60.1963982 L105.278579,61.904362 C105.23867,62.0542262 105.161294,62.1706968 105.046452,62.2545882 C104.931611,62.3384796 104.793149,62.3808326 104.631068,62.3808326 L100.297222,62.3808326 L99.7083529,64.6182081 L105.416226,64.6182081 C105.619846,64.6182081 105.764009,64.6744072 105.852787,64.7851765 C105.940751,64.8959457 105.960299,65.0449955 105.910615,65.2306968 L105.399122,67.1724163 C105.360842,67.3165792 105.286724,67.4289774 105.179213,67.5136833 C105.070072,67.5967602 104.94057,67.6382986 104.790706,67.6382986 L96.1604796,67.6382986 C96.0114299,67.6382986 95.9055475,67.5992036 95.8428326,67.5193846 C95.7809321,67.4371222 95.7695294,67.3214661 95.8086244,67.1724163 L99.0225611,54.982914 Z" id="Fill-18" fill="#FFFFFF"></path>
                        <path d="M116.152941,64.6365339 C116.197738,64.6976199 116.203439,64.7815113 116.175747,64.8898371 L115.541267,67.2974389 C115.51276,67.4049502 115.459819,67.4896561 115.385701,67.5499276 C115.309955,67.6085701 115.214661,67.6395204 115.100633,67.6395204 L107.064977,67.6395204 C106.956652,67.6395204 106.88009,67.6085701 106.832851,67.5499276 C106.784796,67.4896561 106.775837,67.4049502 106.803529,67.2974389 L110.085068,54.8562624 C110.115204,54.7438643 110.168145,54.6567149 110.247149,54.5972579 C110.326968,54.5369864 110.419819,54.5060362 110.528145,54.5060362 L113.089683,54.5060362 C113.197195,54.5060362 113.275385,54.5369864 113.320181,54.5972579 C113.369864,54.6567149 113.377195,54.7438643 113.347873,54.8562624 L110.792851,64.5477557 L115.916742,64.5477557 C116.030769,64.5477557 116.108145,64.5770769 116.152941,64.6365339" id="Fill-20" fill="#FFFFFF"></path>
                        <path d="M126.101647,60.7263801 L127.781919,60.7263801 C128.087348,60.7263801 128.381376,60.6522624 128.664,60.5032127 C128.946624,60.3525339 129.190154,60.148914 129.396217,59.8915385 C129.602281,59.6333484 129.744814,59.3523529 129.824633,59.0461086 C129.906081,58.7406787 129.909339,58.4670136 129.836036,58.2234842 C129.761919,57.9807692 129.621828,57.7909955 129.412507,57.6566063 C129.207258,57.5214027 128.950697,57.4546154 128.645267,57.4546154 L126.964181,57.4546154 L126.101647,60.7263801 Z M131.227167,67.2967873 C131.201919,67.3937104 131.146534,67.4759729 131.063457,67.5452036 C130.978751,67.6136199 130.883457,67.6486425 130.775131,67.6486425 L128.087348,67.6486425 C127.955403,67.6486425 127.860109,67.6193213 127.800652,67.5639367 C127.74038,67.5052941 127.689068,67.3994118 127.6459,67.2438462 L126.697032,63.5404072 L125.359656,63.5404072 L124.401828,67.1721719 C124.361919,67.3228507 124.286986,67.4376923 124.179475,67.5223982 C124.070335,67.6054751 123.938389,67.6486425 123.781195,67.6486425 L121.481104,67.6486425 C121.332054,67.6486425 121.226986,67.6054751 121.166715,67.5223982 C121.108887,67.4376923 121.099113,67.3228507 121.139837,67.1721719 L124.353774,54.9826697 C124.388796,54.8450226 124.462914,54.7326244 124.573683,54.6414027 C124.684452,54.5509955 124.807439,54.5061991 124.9459,54.5061991 L125.539656,54.5061991 L127.272869,54.5061991 L129.557484,54.5061991 C130.48029,54.5061991 131.247529,54.6935294 131.862462,55.0690045 C132.477394,55.4444796 132.892778,55.9747059 133.10943,56.6637557 C133.326081,57.3528054 133.313864,58.1534389 133.075222,59.0640271 C132.85857,59.8850226 132.486353,60.6213122 131.956127,61.2753394 C131.427529,61.930181 130.79305,62.4465611 130.050244,62.830181 L131.225538,67.0988688 C131.244271,67.1591403 131.245086,67.2251131 131.227167,67.2967873 L131.227167,67.2967873 Z" id="Fill-22" fill="#FFFFFF"></path>
                        <path d="M140.444145,62.7848959 L140.137086,58.802905 L137.729484,62.7848959 L140.444145,62.7848959 Z M144.288489,67.3329502 C144.261611,67.4290588 144.207041,67.5080633 144.123964,67.5675204 C144.037629,67.6269774 143.932561,67.6571131 143.807946,67.6571131 L141.254552,67.6571131 C141.128308,67.6571131 141.02324,67.6180181 140.939348,67.5357557 C140.857086,67.4543077 140.807403,67.3508688 140.793557,67.2254389 L140.655095,65.4995566 L136.097267,65.4995566 L135.060434,67.2164796 C134.992018,67.342724 134.891837,67.4461629 134.76152,67.5259819 C134.634462,67.6066154 134.500072,67.6489683 134.362425,67.6489683 L131.817991,67.6489683 C131.693376,67.6489683 131.603783,67.6204615 131.548398,67.5626335 C131.495457,67.5056199 131.481611,67.4266154 131.507674,67.323991 C131.524778,67.2645339 131.558172,67.1953032 131.607041,67.1179276 L139.619077,54.9381991 C139.714371,54.7997376 139.828398,54.6914118 139.961158,54.6148507 C140.091475,54.5366606 140.220977,54.4967511 140.346407,54.4967511 L142.24333,54.4967511 C142.36876,54.4967511 142.475457,54.5382896 142.56505,54.620552 C142.655457,54.6995566 142.706769,54.8062534 142.720615,54.9381991 L144.295819,67.1268869 C144.306407,67.2050769 144.303149,67.2734932 144.288489,67.3329502 L144.288489,67.3329502 Z" id="Fill-24" fill="#FFFFFF"></path>
                        <path d="M154.029421,63.8634299 C154.184986,63.8634299 154.284353,63.9171855 154.329149,64.0255113 L155.132226,66.0568235 C155.150145,66.1048778 155.150959,66.1586335 155.13467,66.2197195 C155.115122,66.2962805 155.070326,66.3728416 155.006796,66.4485882 C154.942452,66.5235204 154.86019,66.5911222 154.759195,66.6497647 C154.179285,67.0146516 153.485348,67.3208959 152.682271,67.5627964 C151.876751,67.8046968 151.161638,67.9268688 150.532045,67.9268688 C149.261457,67.9268688 148.177385,67.6238824 147.2839,67.018724 C146.387973,66.4135656 145.770597,65.5884977 145.432588,64.5418914 C145.09295,63.4960995 145.088878,62.3484977 145.421186,61.0958281 C145.752679,59.837457 146.362724,58.6857828 147.253765,57.6391765 C148.142362,56.5933846 149.193855,55.7691312 150.409873,55.1631584 C151.623448,54.5571855 152.864715,54.2550136 154.136932,54.2550136 C154.747792,54.2550136 155.394489,54.3788145 156.079466,54.6280452 C156.761186,54.877276 157.315846,55.1924796 157.743448,55.576914 C157.859104,55.6836109 157.895756,55.8139276 157.856661,55.9621629 C157.835484,56.0411674 157.796389,56.1095837 157.739376,56.1698552 L155.844896,58.1742896 C155.744715,58.2760995 155.624172,58.3257828 155.479195,58.3257828 C155.361095,58.3257828 155.255213,58.2875023 155.160733,58.2117557 C154.926977,57.9877738 154.635394,57.8077738 154.286796,57.6701267 C153.940643,57.5341086 153.606706,57.4656923 153.290688,57.4656923 C152.619557,57.4656923 151.963086,57.6253303 151.320462,57.9486787 C150.677023,58.2720271 150.119104,58.7118462 149.645891,59.2656923 C149.173493,59.8203529 148.850145,60.4303982 148.675032,61.0958281 C148.500733,61.7539276 148.503991,62.359086 148.684805,62.9113032 C148.867249,63.4618914 149.193855,63.8984525 149.667882,64.2193575 C150.140281,64.539448 150.712045,64.6999005 151.382362,64.6999005 C151.694308,64.6999005 152.055937,64.6339276 152.468063,64.5027964 C152.881005,64.3700362 153.254851,64.2022534 153.590416,63.9986335 C153.751683,63.9090407 153.899104,63.8634299 154.029421,63.8634299" id="Fill-26" fill="#FFFFFF"></path>
                        <path d="M159.356932,54.982914 C159.396027,54.8330498 159.468516,54.7157647 159.574398,54.6318733 C159.679466,54.5479819 159.808154,54.5064434 159.958018,54.5064434 L168.417204,54.5064434 C168.567068,54.5064434 168.672136,54.5479819 168.734036,54.6318733 C168.795122,54.7157647 168.807339,54.8330498 168.768244,54.982914 L168.222543,57.0508778 C168.182633,57.2007421 168.110959,57.3163982 168.008335,57.4011041 C167.90571,57.484181 167.776208,57.5273484 167.620643,57.5273484 L161.912769,57.5273484 L161.339376,59.7028235 L165.671593,59.7028235 C165.83286,59.7028235 165.94933,59.7451765 166.019376,59.8315113 C166.089421,59.9202896 166.103267,60.0408326 166.061729,60.1963982 L165.61295,61.904362 C165.573041,62.0542262 165.495665,62.1706968 165.380824,62.2545882 C165.265982,62.3384796 165.12752,62.3808326 164.965439,62.3808326 L160.631593,62.3808326 L160.042724,64.6182081 L165.750597,64.6182081 C165.954217,64.6182081 166.099195,64.6744072 166.187158,64.7851765 C166.275122,64.8959457 166.29467,65.0449955 166.244986,65.2306968 L165.732679,67.1724163 C165.695213,67.3165792 165.621095,67.4289774 165.513584,67.5136833 C165.404443,67.5967602 165.274127,67.6382986 165.125077,67.6382986 L156.495665,67.6382986 C156.345801,67.6382986 156.239104,67.5992036 156.177204,67.5193846 C156.115303,67.4371222 156.103086,67.3214661 156.142995,67.1724163 L159.356932,54.982914 Z" id="Fill-28" fill="#FFFFFF"></path>
                        <g id="Group-32" transform="translate(166.153846, 54.080796)">
                            <mask id="mask-4" fill="white">
                                <use xlink:href="#path-3"></use>
                            </mask>
                            <g id="Clip-31"></g>
                            <path d="M0.820506787,12.1020271 C0.845755656,12.0059186 0.90521267,11.8975928 1.00539367,11.7794932 L2.56838009,9.87361086 C2.70602715,9.70664253 2.86485068,9.62193665 3.03833484,9.62193665 C3.12222624,9.62193665 3.21426244,9.64474208 3.31525792,9.69279638 C3.83815385,9.96320362 4.35534842,10.1741538 4.86602715,10.3264615 C5.37752036,10.4787692 5.93869683,10.5569593 6.54955656,10.5569593 C7.00485068,10.5569593 7.41371946,10.468181 7.77453394,10.2906244 C8.13371946,10.1146968 8.35525792,9.87768326 8.43426244,9.57632579 C8.49290498,9.35478733 8.45462443,9.16664253 8.31779186,9.01026244 C8.18340271,8.85469683 7.96675113,8.71379186 7.67516742,8.58917647 C7.38114027,8.46211765 6.96086878,8.31225339 6.41435294,8.13714027 C5.5558914,7.86266063 4.87905882,7.56863348 4.38222624,7.25342986 C3.88376471,6.93741176 3.5441267,6.53831674 3.3641267,6.0520724 C3.18168326,5.56908597 3.19064253,4.95741176 3.38367421,4.21786425 C3.60602715,3.37976471 4.01652489,2.65813575 4.6200543,2.0521629 C5.22276923,1.447819 5.93380995,0.990081448 6.75236199,0.682208145 C7.57091403,0.375149321 8.41227149,0.218769231 9.27480543,0.218769231 C9.81969231,0.218769231 10.3531765,0.282298643 10.8752579,0.408542986 C11.3948959,0.533972851 11.8583348,0.6919819 12.2639457,0.885828054 C12.6679276,1.07641629 12.9888326,1.26700452 13.2250317,1.46085068 C13.3748959,1.57976471 13.4278371,1.71415385 13.3895566,1.86483258 C13.3651222,1.95361086 13.2950769,2.07008145 13.1826787,2.20691403 L11.5993303,4.14700452 C11.4763439,4.30257014 11.332181,4.38157466 11.170914,4.38157466 C11.0625882,4.38157466 10.9412308,4.34329412 10.8052127,4.26510407 C10.371095,4.00772851 9.95896833,3.81062443 9.5720905,3.67542081 C9.18602715,3.53940271 8.72584615,3.47261538 8.19236199,3.47261538 C7.81444344,3.47261538 7.46584615,3.55406335 7.1481991,3.71533032 C6.82973756,3.87822624 6.63833484,4.08103167 6.57236199,4.32700452 C6.5039457,4.59008145 6.62123077,4.81732127 6.92584615,5.00628054 C7.22883258,5.1960543 7.74358371,5.40211765 8.46847059,5.63017195 C9.36276923,5.91768326 10.070552,6.20763801 10.5942624,6.49840724 C11.1179729,6.78999095 11.4942624,7.1841991 11.7296471,7.68510407 C11.9625882,8.18438009 11.9731765,8.83270588 11.7646697,9.63089593 C11.5415023,10.4763258 11.1212308,11.2134299 10.5071131,11.847095 C9.88973756,12.4783167 9.15100452,12.9613032 8.29009955,13.2976833 C7.42838009,13.6332489 6.53000905,13.8010317 5.59335747,13.8010317 C4.72023529,13.8010317 3.87480543,13.6870045 3.06032579,13.4597647 C2.24503167,13.2325249 1.54457919,12.9051041 0.954081448,12.4799457 C0.824579186,12.3838371 0.778968326,12.2567783 0.820506787,12.1020271" id="Fill-30" fill="#FFFFFF" mask="url(#mask-4)"></path>
                        </g>
                    </g>
                </g>
            </g>
        </g>
    </g>
</svg>