<?xml version="1.0" encoding="UTF-8"?>
<svg width="506px" height="123px" viewBox="0 0 506 123" version="1.1" xmlns="http://www.w3.org/2000/svg" xmlns:xlink="http://www.w3.org/1999/xlink">
    <!-- Generator: Sketch 62 (91390) - https://sketch.com -->
    <title>Group 21</title>
    <desc>Created with Sketch.</desc>
    <defs>
        <polygon id="path-1" points="0.60705625 0.522530233 27.1586875 0.522530233 27.1586875 55.4819256 0.60705625 55.4819256"></polygon>
        <polygon id="path-3" points="0.00071875 0.229906977 128.102094 0.229906977 128.102094 122.999712 0.00071875 122.999712"></polygon>
    </defs>
    <g id="Newswire---Dinka-Sugoi" stroke="none" stroke-width="1" fill="none" fill-rule="evenodd">
        <g id="Nagasaki-Stryder-1920" transform="translate(-1191.000000, -1422.000000)">
            <g id="HEADLINE" transform="translate(0.000000, 1180.000000)">
                <g id="Group-21" transform="translate(1191.000000, 242.000000)">
                    <polygon id="Fill-1" fill="#FFFFFF" points="153.413304 46 170.224851 46 180.559084 76.0431566 180.712205 76.0431566 186.881832 46 203 46 191.43213 101 174.775149 101 164.672042 70.1892069 164.518921 70.1892069 158.116724 101 142 101"></polygon>
                    <g id="Group-20">
                        <path d="M214.847456,89.151893 C214.847456,90.5389628 215.346269,91.4631953 216.343894,91.9245907 C217.341519,92.385986 218.454144,92.6166837 219.681769,92.6166837 C222.240519,92.6166837 224.120769,91.7443581 225.323956,89.999707 C226.525706,88.2550558 227.356581,85.8947302 227.816581,82.9172884 C226.590394,83.5344047 225.285144,83.9554279 223.902269,84.1890093 C222.522269,84.419707 221.139394,84.5855209 219.760831,84.687893 C218.478581,84.7931488 217.341519,85.1896605 216.343894,85.8803116 C215.346269,86.5738465 214.847456,87.6653349 214.847456,89.151893 L214.847456,89.151893 Z M204.947394,72.7564977 C205.562644,70.0890558 206.507081,67.9089628 207.787894,66.2147767 C209.065831,64.5220326 210.589581,63.1868698 212.353394,62.2107302 C214.120081,61.2374744 216.102394,60.569893 218.301769,60.2123116 C220.499706,59.8532884 222.828456,59.6730558 225.285144,59.6730558 C227.074831,59.6730558 229.094519,59.7768698 231.347081,59.9801721 C233.598206,60.1849163 235.708456,60.6463116 237.679269,61.3658 C239.645769,62.0852884 241.297456,63.1493814 242.628581,64.5595209 C243.958269,65.9711023 244.623831,67.8830093 244.623831,70.2952419 C244.623831,71.3218465 244.507394,72.6425907 244.277394,74.2589163 C244.048831,75.8738 243.751269,77.6054744 243.394769,79.4539395 C243.036831,81.3009628 242.640081,83.1753814 242.205956,85.0728698 C241.770394,86.9718 241.375081,88.7424047 241.017144,90.3846837 C240.657769,92.0255209 240.364519,93.4500791 240.134519,94.6569163 C239.904519,95.8623116 239.788081,96.6711953 239.788081,97.0806837 C239.788081,98.4677535 239.992206,99.6471953 240.403331,100.621893 L225.513706,100.621893 C225.309581,100.006219 225.155769,99.3790093 225.056581,98.7344977 C224.950206,98.0943116 224.925769,97.4411488 224.977519,96.7735674 L224.823706,96.7735674 C224.159581,97.593986 223.351706,98.3004977 222.405831,98.8916605 C221.458519,99.4813814 220.436456,99.981707 219.338206,100.392637 C218.237081,100.800684 217.110081,101.109242 215.960081,101.315428 C214.810081,101.520172 213.670144,101.622544 212.546019,101.622544 C210.858394,101.622544 209.232581,101.432219 207.671456,101.0458 C206.111769,100.660823 204.728894,100.045149 203.528581,99.1973349 C202.326831,98.3524047 201.379519,97.2464977 200.688081,95.8882651 C199.998081,94.5285907 199.653081,92.8992884 199.653081,91.0003581 C199.653081,88.3848233 200.127456,86.2032884 201.073331,84.4571953 C202.019206,82.713986 203.337394,81.3009628 205.026456,80.2253349 C206.714081,79.1468233 208.735206,78.3523581 211.088394,77.837614 C213.440144,77.3257535 216.049206,76.9667302 218.915581,76.7605442 C219.989394,76.7086372 221.179644,76.6581721 222.483456,76.607707 C223.788706,76.5558 224.990456,76.4130558 226.091581,76.1838 C227.191269,75.9516605 228.122769,75.5291953 228.891831,74.9120791 C229.658019,74.2964047 230.041831,73.373614 230.041831,72.1422651 C230.041831,70.7566372 229.543019,69.8338465 228.545394,69.3710093 C227.547769,68.9081721 226.461019,68.6789163 225.285144,68.6789163 C223.748456,68.6789163 222.457581,68.9860326 221.409644,69.6002651 C220.360269,70.2173814 219.630019,71.2699395 219.221769,72.7564977 L204.947394,72.7564977 Z" id="Fill-2" fill="#FFFFFF"></path>
                        <path d="M271.633594,70.7567814 C270.151531,70.7567814 268.898031,71.1287814 267.874531,71.8713395 C266.852469,72.6167814 266.033094,73.5424558 265.420719,74.6425953 C264.806906,75.7470605 264.356969,76.9668744 264.076656,78.2991535 C263.796344,79.6343163 263.654031,80.8916186 263.654031,82.0725023 C263.654031,83.8690605 264.088156,85.3815721 264.959281,86.6143628 C265.827531,87.8457116 267.132781,88.4599442 268.872156,88.4599442 C270.663281,88.4599442 272.106531,87.9855721 273.207656,87.035386 C274.308781,86.0866419 275.165531,84.9836186 275.779344,83.7263163 C276.396031,82.4704558 276.801406,81.1987349 277.005531,79.9169209 C277.211094,78.6336651 277.314594,77.6575256 277.314594,76.9899442 C277.314594,76.3742698 277.275781,75.711014 277.199594,74.9886419 C277.121969,74.2720372 276.891969,73.5929209 276.509594,72.9498512 C276.124344,72.3082233 275.559406,71.783386 274.819094,71.3738977 C274.077344,70.9629674 273.017906,70.7567814 271.633594,70.7567814 L271.633594,70.7567814 Z M288.518469,93.6938977 C288.159094,95.5394791 287.762344,97.3504558 287.329656,99.1210605 C286.894094,100.891665 286.332031,102.546921 285.640594,104.085386 C284.950594,105.625293 284.079469,107.035433 283.032969,108.318688 C281.982156,109.600502 280.651031,110.706409 279.039594,111.6292 C277.428156,112.553433 275.473156,113.270037 273.168844,113.784781 C270.868844,114.296642 268.105969,114.553293 264.883094,114.553293 C264.115469,114.553293 263.102031,114.515805 261.851406,114.439386 C260.596469,114.361526 259.279719,114.195712 257.898281,113.937619 C256.516844,113.682409 255.123906,113.270037 253.715156,112.707712 C252.309281,112.14106 251.055781,111.359572 249.956094,110.358921 C248.854969,109.356828 247.973781,108.126921 247.308219,106.663433 C246.644094,105.202828 246.360906,103.393293 246.462969,101.237712 L261.504969,101.237712 C261.504969,102.725712 261.914656,103.880642 262.735469,104.702502 C263.449906,105.26627 264.624344,105.547433 266.263094,105.547433 C267.387219,105.547433 268.334531,105.342688 269.103594,104.931758 C269.869781,104.52227 270.495094,103.983014 270.982406,103.315433 C271.468281,102.647851 271.839156,101.892316 272.095031,101.045944 C272.350906,100.19813 272.580906,99.3387814 272.786469,98.4678977 L273.706469,94.2331535 L273.554094,94.2331535 C272.376781,95.5683163 270.955094,96.5689674 269.294781,97.235107 C267.633031,97.9026884 265.880719,98.2357581 264.037844,98.2357581 C261.634344,98.2357581 259.472344,97.8652 257.554719,97.1197581 C255.634219,96.3772 254.009844,95.3376186 252.678719,94.001014 C251.349031,92.6687349 250.312594,91.0394326 249.572281,89.113107 C248.829094,87.1882233 248.458219,85.0470605 248.458219,82.6867349 C248.458219,79.865014 248.880844,77.0678047 249.726094,74.2965488 C250.571344,71.525293 251.798969,69.0625953 253.410406,66.907014 C255.021844,64.7528744 257.017094,63.0096651 259.394719,61.6730605 C261.775219,60.3393395 264.523719,59.6732 267.645969,59.6732 C270.102656,59.6732 272.389719,60.1072 274.514344,60.9809674 C276.634656,61.8518512 278.286344,63.4696186 279.462219,65.8285023 L279.617469,65.8285023 L280.615094,60.6724093 L295.270406,60.6724093 L288.518469,93.6938977 Z" id="Fill-4" fill="#FFFFFF"></path>
                        <path d="M310.465787,89.151893 C310.465787,90.5389628 310.966038,91.4631953 311.963662,91.9245907 C312.961287,92.385986 314.072475,92.6166837 315.3001,92.6166837 C317.85885,92.6166837 319.737662,91.7443581 320.94085,89.999707 C322.1426,88.2550558 322.97635,85.8947302 323.433475,82.9172884 C322.207288,83.5344047 320.903475,83.9554279 319.522038,84.1890093 C318.139162,84.419707 316.759163,84.5855209 315.377725,84.687893 C314.09835,84.7931488 312.961287,85.1896605 311.963662,85.8803116 C310.966038,86.5738465 310.465787,87.6653349 310.465787,89.151893 L310.465787,89.151893 Z M300.565725,72.7564977 C301.179537,70.0890558 302.12685,67.9089628 303.406225,66.2147767 C304.6856,64.5220326 306.206475,63.1868698 307.971725,62.2107302 C309.735537,61.2374744 311.719288,60.569893 313.918662,60.2123116 C316.119475,59.8532884 318.446787,59.6730558 320.903475,59.6730558 C322.693162,59.6730558 324.71285,59.7768698 326.96685,59.9801721 C329.2151,60.1849163 331.326788,60.6463116 333.296163,61.3658 C335.265538,62.0852884 336.91435,63.1493814 338.245475,64.5595209 C339.5766,65.9711023 340.240725,67.8830093 340.240725,70.2952419 C340.240725,71.3218465 340.125725,72.6425907 339.895725,74.2589163 C339.664288,75.8738 339.371037,77.6054744 339.0131,79.4539395 C338.653725,81.3009628 338.25985,83.1753814 337.824288,85.0728698 C337.388725,86.9718 336.991975,88.7424047 336.634038,90.3846837 C336.2761,92.0255209 335.98285,93.4500791 335.75285,94.6569163 C335.521412,95.8623116 335.40785,96.6711953 335.40785,97.0806837 C335.40785,98.4677535 335.611975,99.6471953 336.020225,100.621893 L321.133475,100.621893 C320.927912,100.006219 320.7741,99.3790093 320.673475,98.7344977 C320.568537,98.0943116 320.5441,97.4411488 320.59585,96.7735674 L320.442037,96.7735674 C319.776475,97.593986 318.971475,98.3004977 318.0256,98.8916605 C317.07685,99.4813814 316.054787,99.981707 314.9551,100.392637 C313.853975,100.800684 312.72985,101.109242 311.578413,101.315428 C310.428412,101.520172 309.289912,101.622544 308.162913,101.622544 C306.476725,101.622544 304.850912,101.432219 303.291225,101.0458 C301.7301,100.660823 300.348662,100.045149 299.145475,99.1973349 C297.943725,98.3524047 296.99785,97.2464977 296.306413,95.8882651 C295.616412,94.5285907 295.271412,92.8992884 295.271412,91.0003581 C295.271412,88.3848233 295.745787,86.2032884 296.691663,84.4571953 C297.637537,82.713986 298.954287,81.3009628 300.64335,80.2253349 C302.330975,79.1468233 304.3521,78.3523581 306.706725,77.837614 C309.058475,77.3257535 311.667538,76.9667302 314.532475,76.7605442 C315.606288,76.7086372 316.796537,76.6581721 318.101788,76.607707 C319.407038,76.5558 320.60735,76.4130558 321.708475,76.1838 C322.808163,75.9516605 323.742537,75.5291953 324.508725,74.9120791 C325.277787,74.2964047 325.660163,73.373614 325.660163,72.1422651 C325.660163,70.7566372 325.162787,69.8338465 324.163725,69.3710093 C323.1661,68.9081721 322.07935,68.6789163 320.903475,68.6789163 C319.366787,68.6789163 318.074475,68.9860326 317.026537,69.6002651 C315.977163,70.2173814 315.24835,71.2699395 314.8401,72.7564977 L300.565725,72.7564977 Z" id="Fill-6" fill="#FFFFFF"></path>
                        <path d="M356.739487,87.5367209 C356.739487,89.1804419 357.199487,90.4117907 358.122363,91.2307674 C358.989175,91.8983488 360.3203,92.2314186 362.111425,92.2314186 C363.134925,92.2314186 363.955738,92.0915581 364.566675,91.8089535 C365.181925,91.5277907 365.641925,91.1918372 365.948113,90.8083023 C366.255738,90.4233256 366.4613,90.0383488 366.563363,89.6533721 C366.663988,89.2698372 366.715737,88.9483023 366.715737,88.6902093 C366.715737,87.9736047 366.487175,87.4098372 366.025738,86.9974651 C365.565738,86.5879767 364.913113,86.2419302 364.0693,85.9578837 C363.22405,85.6781628 362.226425,85.4460233 361.074988,85.2657907 C359.924988,85.0855581 358.631237,84.8678372 357.199487,84.6126279 C356.535363,84.508814 355.600988,84.3170465 354.400675,84.0344419 C353.19605,83.7532791 351.992863,83.2515116 350.79255,82.5334651 C349.5908,81.8139767 348.552925,80.8017907 347.684675,79.4925814 C346.81355,78.1833721 346.379425,76.4531395 346.379425,74.2961163 C346.379425,71.4239302 346.955862,69.0506279 348.1073,67.1776512 C349.2573,65.3032326 350.779613,63.8022558 352.6728,62.6747209 C354.56455,61.5457442 356.687738,60.762814 359.042363,60.3273721 C361.394113,59.8904884 363.773175,59.6727674 366.17955,59.6727674 C368.275425,59.6727674 370.425925,59.8256047 372.6253,60.1341628 C374.826113,60.4412791 376.806987,61.0454186 378.572238,61.9422558 C380.338925,62.8405349 381.746238,64.1252326 382.794175,65.7905814 C383.842112,67.458814 384.261863,69.6273721 384.059175,72.2962558 L370.477675,72.2962558 C370.628612,70.8082558 370.272112,69.7556977 369.402425,69.1385814 C368.889238,68.7305349 368.328613,68.460907 367.7148,68.3325814 C367.09955,68.2056977 366.487175,68.1379302 365.871925,68.1379302 C364.848425,68.1379302 363.876675,68.3830465 362.956675,68.8703953 C362.035237,69.359186 361.5738,70.1911395 361.5738,71.3734651 C361.5738,72.4505349 361.892925,73.1945349 362.53405,73.6040233 C363.173738,74.0149535 364.004613,74.2716047 365.028113,74.3739767 C367.8413,74.784907 370.309487,75.2592791 372.434113,75.797093 C374.555862,76.3363488 376.319675,77.0673721 377.729862,77.9916047 C379.135738,78.9158372 380.183675,80.0837442 380.875113,81.4938837 C381.56655,82.9054651 381.91155,84.6616512 381.91155,86.7667674 C381.91155,89.075186 381.438613,91.1543488 380.4913,93.002814 C379.543987,94.8483953 378.189863,96.4012791 376.423175,97.6585814 C374.659363,98.9173256 372.534738,99.8905814 370.05505,100.584116 C367.572488,101.274767 364.796675,101.623698 361.727613,101.623698 C359.579988,101.623698 357.366238,101.456442 355.090675,101.12193 C352.813675,100.785977 350.755175,100.111186 348.9123,99.0831395 C347.069425,98.0565349 345.561487,96.6334186 344.385613,94.810907 C343.2083,92.9883953 342.670675,90.5660698 342.7713,87.5367209 L356.739487,87.5367209 Z" id="Fill-8" fill="#FFFFFF"></path>
                        <path d="M400.406425,89.151893 C400.406425,90.5389628 400.905238,91.4631953 401.902863,91.9245907 C402.900488,92.385986 404.013113,92.6166837 405.240738,92.6166837 C407.79805,92.6166837 409.679738,91.7443581 410.881488,89.999707 C412.0818,88.2550558 412.914113,85.8947302 413.374113,82.9172884 C412.146488,83.5344047 410.844113,83.9554279 409.461238,84.1890093 C408.078363,84.419707 406.698363,84.5855209 405.316925,84.687893 C404.03755,84.7931488 402.900488,85.1896605 401.902863,85.8803116 C400.905238,86.5738465 400.406425,87.6653349 400.406425,89.151893 L400.406425,89.151893 Z M390.506363,72.7564977 C391.118738,70.0890558 392.06605,67.9089628 393.343988,66.2147767 C394.623363,64.5220326 396.147113,63.1868698 397.912363,62.2107302 C399.676175,61.2374744 401.658488,60.569893 403.857863,60.2123116 C406.058675,59.8532884 408.387425,59.6730558 410.844113,59.6730558 C412.632363,59.6730558 414.65205,59.7768698 416.90605,59.9801721 C419.1543,60.1849163 421.265988,60.6463116 423.2368,61.3658 C425.204738,62.0852884 426.85355,63.1493814 428.184675,64.5595209 C429.5158,65.9711023 430.181363,67.8830093 430.181363,70.2952419 C430.181363,71.3218465 430.066363,72.6425907 429.834925,74.2589163 C429.604925,75.8738 429.310238,77.6054744 428.9523,79.4539395 C428.592925,81.3009628 428.197613,83.1753814 427.763488,85.0728698 C427.329363,86.9718 426.931175,88.7424047 426.573238,90.3846837 C426.216738,92.0255209 425.920613,93.4500791 425.69205,94.6569163 C425.460613,95.8623116 425.34705,96.6711953 425.34705,97.0806837 C425.34705,98.4677535 425.549738,99.6471953 425.959425,100.621893 L411.072675,100.621893 C410.867113,100.006219 410.7133,99.3790093 410.612675,98.7344977 C410.509175,98.0943116 410.484738,97.4411488 410.536488,96.7735674 L410.381238,96.7735674 C409.717113,97.593986 408.910675,98.3004977 407.9648,98.8916605 C407.018925,99.4813814 405.993988,99.981707 404.8943,100.392637 C403.794613,100.800684 402.66905,101.109242 401.517613,101.315428 C400.367613,101.520172 399.229113,101.622544 398.10355,101.622544 C396.414488,101.622544 394.790113,101.432219 393.230425,101.0458 C391.667863,100.660823 390.287863,100.045149 389.086113,99.1973349 C387.882925,98.3524047 386.93705,97.2464977 386.245613,95.8882651 C385.55705,94.5285907 385.21205,92.8992884 385.21205,91.0003581 C385.21205,88.3848233 385.684988,86.2032884 386.630863,84.4571953 C387.576738,82.713986 388.893488,81.3009628 390.58255,80.2253349 C392.271613,79.1468233 394.2913,78.3523581 396.645925,77.837614 C398.997675,77.3257535 401.606738,76.9667302 404.47455,76.7605442 C405.548363,76.7086372 406.735738,76.6581721 408.040988,76.607707 C409.346238,76.5558 410.547988,76.4130558 411.647675,76.1838 C412.747363,75.9516605 413.6803,75.5291953 414.449363,74.9120791 C415.216988,74.2964047 415.6008,73.373614 415.6008,72.1422651 C415.6008,70.7566372 415.101988,69.8338465 414.102925,69.3710093 C413.106738,68.9081721 412.01855,68.6789163 410.844113,68.6789163 C409.307425,68.6789163 408.015113,68.9860326 406.965738,69.6002651 C405.916363,70.2173814 405.188988,71.2699395 404.7793,72.7564977 L390.506363,72.7564977 Z" id="Fill-10" fill="#FFFFFF"></path>
                        <polygon id="Fill-12" fill="#FFFFFF" points="444.299337 45.6622093 459.493712 45.6622093 454.047025 72.3726744 454.200837 72.3726744 465.40615 60.6719767 483.591962 60.6719767 465.712337 76.7602558 475.839525 100.621605 459.342775 100.621605 453.970837 86.151093 450.516525 89.2294651 448.137462 100.621605 432.943087 100.621605"></polygon>
                        <g id="Group-16" transform="translate(478.687500, 45.139535)">
                            <mask id="mask-2" fill="white">
                                <use xlink:href="#path-1"></use>
                            </mask>
                            <g id="Clip-15"></g>
                            <path d="M24.9338688,11.2225767 L9.73949375,11.2225767 L11.9647438,0.522530233 L27.1591188,0.522530233 L24.9338688,11.2225767 Z M8.89424375,15.5322977 L24.0886187,15.5322977 L15.8014312,55.4819256 L0.60705625,55.4819256 L8.89424375,15.5322977 Z" id="Fill-14" fill="#FFFFFF" mask="url(#mask-2)"></path>
                        </g>
                        <g id="Group-19">
                            <mask id="mask-4" fill="white">
                                <use xlink:href="#path-3"></use>
                            </mask>
                            <g id="Clip-18"></g>
                            <path d="M84.0685938,109.387107 L66.0524063,94.651293 L65.7634688,93.7184093 C64.9900938,91.2268744 65.7634688,88.2465488 67.6925938,86.0203163 L70.3821563,90.7366419 L74.6472188,87.9495256 L71.9375313,83.1942698 C72.7583438,82.9275256 73.5920938,82.7963163 74.4258438,82.7963163 C76.3449063,82.7963163 78.0569688,83.5100372 79.2429063,84.803386 L79.9041563,85.5243163 L84.0685938,109.387107 Z M62.8165938,92.0083628 L57.4245313,87.5962698 L50.8522813,91.9146419 C52.9194063,88.7165953 53.1005313,84.8149209 51.2490313,81.9571535 L52.0468438,81.0487814 L54.8341563,83.3456651 L58.2036563,79.5074326 L58.0900938,79.4137116 C58.2784063,79.4238047 58.4695938,79.4281302 58.6622188,79.4281302 C58.8232188,79.4281302 58.9842188,79.4252465 59.1437813,79.4180372 L61.4294063,83.4249674 L64.9153438,81.1482698 L65.3135313,81.8461302 C62.5549688,84.7096651 61.5932813,88.7295721 62.8165938,92.0083628 L62.8165938,92.0083628 Z M48.5436563,61.2549209 L47.7041563,60.9665488 C48.3869688,57.3950605 46.9667188,54.0542698 44.1247813,52.3413395 L51.2677188,52.3413395 L54.7507813,44.9806419 C54.7435938,48.6213395 56.9214063,51.655014 60.3440938,52.6700837 L60.1874063,53.6938047 L56.3090313,53.6822698 L55.6175938,58.2428744 C55.2208438,58.4764558 54.8370313,58.7287814 54.4632813,59.001293 L50.3060313,57.5594326 L48.5436563,61.2549209 Z M45.6758438,75.8004093 L48.4631563,78.0987349 L47.6682188,79.0027814 C46.6662813,78.5947349 45.5795313,78.3856651 44.4309688,78.3856651 C42.0705938,78.3856651 39.6771563,79.3012465 37.7552188,80.8887349 L40.9550938,74.129293 L35.3804688,69.5715721 C35.9827813,69.7013395 36.6037813,69.7662233 37.2377188,69.7662233 C40.3815313,69.7662233 43.5253438,68.1628744 45.5852813,65.543014 L46.3701563,65.8140837 L44.6092188,69.511014 L48.8627813,70.9831535 C48.9044688,71.3219907 48.9634063,71.6521767 49.0352813,71.9765953 L45.6758438,75.8004093 Z M47.2484688,93.473293 L46.4075313,94.837293 L24.2700313,109.387107 L35.5256563,85.599293 L36.5707188,84.7485953 C38.1979688,83.4249674 40.1644688,82.695386 42.1094063,82.695386 C42.8295938,82.695386 43.5181563,82.7934326 44.1650313,82.9909674 L40.0782188,87.6424093 L43.6604688,90.5938977 L47.7731563,85.9121767 C48.9418438,88.0922698 48.7693438,91.0048279 47.2484688,93.473293 L47.2484688,93.473293 Z M34.2937188,67.0785953 C33.9832188,67.0785953 33.6727188,67.0598512 33.3708438,67.0209209 L32.0555313,66.8536651 L14.3081563,52.3413395 L39.6584688,52.3413395 L40.3599688,52.7695721 C42.5564688,54.1177116 43.6058438,56.6539442 43.1645313,59.3920372 L37.8932188,57.5666419 L35.7211563,62.1258047 L40.9579688,63.9382233 C39.2200313,65.8977116 36.7518438,67.0785953 34.2937188,67.0785953 L34.2937188,67.0785953 Z M67.9542188,17.0820837 L72.1387813,41.0501302 L71.8627813,41.8460372 C70.9312813,44.525014 68.6485313,46.7368279 65.9877188,47.6452 L66.8645938,41.8878512 L61.9914688,41.869107 L61.0959063,47.7302698 C58.6435313,46.9069674 57.0349688,44.7528279 56.9185313,42.0334791 L56.8538438,40.5368279 L67.9542188,17.0820837 Z M74.1095938,52.3413395 L81.4868438,52.3413395 C78.0727813,53.989386 75.6074688,57.389293 75.2782813,61.0299907 L74.2605313,61.3428744 L73.6265938,57.6387349 L69.0222813,59.0560837 C68.7707188,58.8196186 68.5062188,58.5932465 68.2287813,58.3841767 L68.9389063,53.7240837 L65.0619688,53.7096651 L65.2100313,52.7349674 C68.7577813,51.851107 71.7535313,49.0553395 72.9394688,45.6381302 L74.1095938,52.3413395 Z M85.2602813,52.9425953 L86.4361563,52.3413395 L111.067719,52.3413395 L88.6815313,67.0526419 L87.4927188,67.1896186 C87.1908438,67.2256651 86.8904063,67.2429674 86.5942813,67.2429674 C84.1994063,67.2429674 82.1452188,66.1024558 81.0369063,64.2136186 L86.8300313,62.4329209 L86.0235938,57.7252465 L80.2836563,59.4900837 C80.7738438,56.8038977 82.6627188,54.2676651 85.2602813,52.9425953 L85.2602813,52.9425953 Z M77.9146563,74.129293 L79.1580938,81.2564093 C77.6659688,79.4973395 75.4205938,78.4779442 72.9164688,78.4779442 C71.7923438,78.4779442 70.6754063,78.6754791 69.5843438,79.0676651 L69.1818438,78.3611535 L72.6663438,76.0844558 L70.4224063,72.1496186 C70.5949063,71.8309674 70.7544688,71.5065488 70.9010938,71.1749209 L70.9097188,71.2268279 L75.6994688,69.7532465 L75.0655313,66.049107 L76.1565938,65.7145953 C77.5064063,68.3243628 80.1945313,69.913293 83.3440938,69.913293 C83.7034688,69.913293 84.0614063,69.8916651 84.4250938,69.8498512 L77.9146563,74.129293 Z M128.102094,46.9891535 L78.7139063,46.9891535 L70.5517813,0.229618605 L48.4214688,46.9891535 L0.00071875,46.9891535 L34.9104063,75.5365488 L12.4480313,122.999712 L57.0809688,93.6665023 L91.8239063,122.078363 L83.7983438,76.1075256 L128.102094,46.9891535 Z" id="Fill-17" fill="#FFFFFF" mask="url(#mask-4)"></path>
                        </g>
                    </g>
                </g>
            </g>
        </g>
    </g>
</svg>